<svg id="Layer_1" data-name="Layer 1" xmlns="http://www.w3.org/2000/svg" width="375" height="27.67" viewBox="0 0 375 27.67"><defs><style>.cls-1,.cls-3{fill:#fff;}.cls-1,.cls-2{stroke:#231f20;stroke-miterlimit:10;stroke-width:2.5px;}.cls-2{fill:none;}.cls-4{fill:#e2f4f8;}</style></defs><path class="cls-1" d="M389.59,100.23H268.37L262,94l6.4-6.24H389.59L383.35,94Z" transform="translate(-215.06 -80.16)"/><line class="cls-2" y1="13.83" x2="168.29" y2="13.83"/><rect class="cls-3" x="387.23" y="85.46" width="17.06" height="17.06" transform="translate(-32.68 -332.47) rotate(45)"/><rect class="cls-3" x="401.65" y="85.46" width="17.06" height="17.06" transform="translate(-28.46 -342.67) rotate(45)"/><rect class="cls-4" x="399.53" y="90.56" width="6.87" height="6.87" transform="translate(-163.49 232.31) rotate(-45)"/><rect class="cls-2" x="387.02" y="85.46" width="17.06" height="17.06" transform="translate(-32.74 -332.32) rotate(45)"/><rect class="cls-2" x="401.44" y="85.46" width="17.06" height="17.06" transform="translate(-28.52 -342.52) rotate(45)"/><path class="cls-1" d="M415.88,87.75H537.1L543.51,94l-6.41,6.24H415.88L422.12,94Z" transform="translate(-215.06 -80.16)"/><line class="cls-2" x1="375" y1="13.83" x2="207.07" y2="13.83"/></svg>